<?xml version="1.0" encoding="UTF-8"?>
<svg id="Layer_1" xmlns="http://www.w3.org/2000/svg" version="1.1" viewBox="0 0 8 8">
  <!-- Generator: Adobe Illustrator 29.3.1, SVG Export Plug-In . SVG Version: 2.1.0 Build 151)  -->
  <defs>
    <style>
      .st0 {
        fill: #c45e49;
      }

      .st1 {
        fill: #ccebf2;
        isolation: isolate;
        opacity: .5;
      }

      .st2 {
        fill: #d08955;
      }

      .st3 {
        fill: #efb276;
      }
    </style>
  </defs>
  <g id="legs">
    <path id="leg_rh" class="st3" d="M4.7,3.3h0c0,0,0,.1,0,.1,0,0,0,0,0,.1,0,0,0,0,0,.1,0,0,.1,0,.2.1,0,0,.2.1.2.2h0c.2.5.3.9.3,1h0c.3.5.4.7.5.7,0,0,0,.1,0,.2,0,0,0,.1.1.1,0,0,0,0,0,.1,0,0,0,0,0,0,0,0,0,0,0,.1,0,0,0,0,0,0,0,0,0,0,0,0,0,0,0,0,0,.1h0c0,0,0,0,0,0,0,0,0,0,0-.1h0s0,0,0,0c0,0,0,0,0,0,0,0,0,0,0-.1,0,0,0,0,0,0,0,0,0,0,0-.1,0,0,0,0,0,0,0,0,0-.1,0-.2,0,0,0,0,0-.1,0-.1-.2-.6-.4-.7,0-.1,0-.4,0-.6,0-.2,0-.3-.2-.5h0c0-.1-.4-.4-.6-.7h0Z"/>
    <path id="leg_lh" class="st3" d="M3.3,3.3h0c0,0,0,.1,0,.1,0,0,0,0,0,.1,0,0,0,0,0,.1,0,0-.1,0-.2.1,0,0-.2.1-.2.2h0c-.2.5-.3.9-.3,1h0c-.3.5-.4.7-.5.7,0,0,0,.1,0,.2,0,0,0,.1-.1.1,0,0,0,0,0,.1,0,0,0,0,0,0,0,0,0,0,0,.1,0,0,0,0,0,0,0,0,0,0,0,0,0,0,0,0,0,.1h0c0,0,0,0,0,0,0,0,0,0,0-.1h0s0,0,0,0c0,0,0,0,0,0,0,0,0,0,0-.1,0,0,0,0,0,0,0,0,0,0,0-.1,0,0,0,0,0,0,0,0,0-.1,0-.2,0,0,0,0,0-.1,0-.1.2-.6.4-.7,0-.1,0-.4,0-.6,0-.2,0-.3.2-.5h0c0-.1.4-.4.6-.7h0Z"/>
    <path id="leg_rm" class="st3" d="M7.9,2.4h0s0,0,0,0c0,0,0,0,0,0,0,0,0,0,0,0,0,0,0,0,0,0,0,0,0,0,0,0,0,0,0,0,0,0,0,0,0,0-.1,0,0,0,0,0-.1,0-.1,0-.7.1-.8.2h0c0,0-.3.1-.5.1-.1,0-.2,0-.3.1,0,0,0,0,0,0-.1,0-.4,0-.7,0,0,0,0,0,0,0,0,0,0,.2,0,.2,0,0,0,0,0,0,0,0,0,0,0,0,.3,0,.7.1.7,0,.3,0,.9-.3.9-.3,0,0,0,0,0,0,.4-.1.7-.2.7-.2,0,0,0,0,.1,0,0,0,.1,0,.1,0,0,0,0,0,0,0,0,0,0,0,0,0,0,0,0,0,0,0,0,0,0,0,0,0,0,0,0,0,0,0h0s0,0,0,0c0,0,0,0,0,0,0,0,0,0,0,0h0Z"/>
    <path id="leg_lm" class="st3" d="M0,2.4h0s0,0,0,0c0,0,0,0,0,0,0,0,0,0,0,0,0,0,0,0,0,0,0,0,0,0,0,0,0,0,0,0,0,0,0,0,0,0,.1,0,0,0,0,0,.1,0,.1,0,.7.1.8.2h0c0,0,.3.1.5.1.1,0,.2,0,.3.1,0,0,0,0,0,0,.1,0,.4,0,.7,0,0,0,0,0,0,0,0,0,0,.2,0,.2,0,0,0,0,0,0,0,0,0,0,0,0-.3,0-.7.1-.7,0-.3,0-.9-.3-.9-.3,0,0,0,0,0,0-.4-.1-.7-.2-.7-.2,0,0,0,0-.1,0,0,0-.1,0-.1,0,0,0,0,0,0,0,0,0,0,0,0,0,0,0,0,0,0,0,0,0,0,0,0,0,0,0,0,0,0,0h0s0,0,0,0c0,0,0,0,0,0,0,0,0,0,0,0h0Z"/>
    <path id="leg_rf" class="st3" d="M6.4,0h0s0,0,0,0c0,0,0,0,0,0,0,0,0,0,0,0,0,0,0,0,0,0,0,0,0,0,0,0,0,0,0,0,0,0,0,0,0,0,0,0,0,0-.2.2-.4.4,0,0-.1.2-.2.3,0,0-.1.1-.2.2,0,0-.3.3-.4.5,0,0,0,0,0,0,0,0,0,.1,0,.2,0-.1.2-.3.3-.4,0,0,0,0,0-.1h0c.2-.2.4-.5.4-.6.2-.1.4-.3.4-.4,0,0,0,0,0,0,0,0,0,0,0-.1,0,0,0,0,0,0,0,0,0,0,0,0,0,0,0,0,0,0,0,0,0,0,0,0,0,0,0,0,0,0h0s0,0,0,0c0,0,0,0,0,0,0,0,0,0,0,0h0Z"/>
    <path id="leg_lf" class="st3" d="M1.6,0h0s0,0,0,0c0,0,0,0,0,0,0,0,0,0,0,0,0,0,0,0,0,0,0,0,0,0,0,0,0,0,0,0,0,0,0,0,0,0,0,0,0,0,.2.2.4.4,0,0,.1.2.2.3,0,0,.1.1.2.2,0,0,.3.3.4.5,0,0,0,0,0,0,0,0,0,.1,0,.2,0-.1-.2-.3-.3-.4,0,0,0,0,0-.1h0c-.2-.2-.4-.5-.4-.6-.2-.1-.4-.3-.4-.4,0,0,0,0,0,0,0,0,0,0,0-.1,0,0,0,0,0,0,0,0,0,0,0,0,0,0,0,0,0,0,0,0,0,0,0,0,0,0,0,0,0,0h0s0,0,0,0c0,0,0,0,0,0,0,0,0,0,0,0h0Z"/>
  </g>
  <g id="halteres">
    <path id="haltere_r" class="st3" d="M4.8,3s0,0,0,.1c0,0,0,0,0,0,0,0,0,0,0,0,0,0,0,.1,0,.2,0,0,.2.1.2,0,0,0,0-.2,0-.2,0,0-.2,0-.2,0,0,0,0,0,0,0,0,0,0,0,0,0Z"/>
    <path id="haltere_l" class="st3" d="M3.3,3.1s0,0,0-.1c0,0,0,0,0,0,0,0,0,0,0,0,0,0-.1,0-.2,0,0,0-.1.2,0,.2,0,0,.2,0,.2,0,0,0,0-.2,0-.2,0,0,0,0,0,0,0,0,0,0,0,0h0Z"/>
  </g>
  <path id="body" class="st2" d="M4.1.6s0,0,0,0h0s0,0,0,0c0,0,0,0,0,0h0s0,0,0,0c0,0-.1,0-.2,0,0,0-.1,0,0,0,0,0,0,0,0,0h0c0,0-.1,0-.2.1,0,0,0,0,0,0,0,0,0,0,0,0,0,0,0,0,0,0,0,0,0,.2,0,.3,0,0,0,0,0,.1,0,0,0,0,0,.1,0,0,0,0,0,0,0,0,0,0,0,0,0,0,0,0,0,0,0,0-.2.1-.2,0h0s.2,0,.3,0c0,0,0,0,0,0,0,0,0,0,0,0,0,0,0,0,0,0,0,0,0,0,0,0,0,0,0,0,0,0-.2,0-.3,0-.5.2-.1.1-.2.4-.2.7,0,0,0,.1,0,.2,0,0,0,.2,0,.2,0,0,0,.1.1.2,0,.1,0,.2,0,.3,0,0,0,0,0,.1,0,.2-.2.4-.2.7,0,0,0,.2,0,.3,0,0,0,0,0,0s0,0,0,0c0,0,0,0,0,0,0,0,0,0,0,0,0,.1,0,.3,0,.4.1.7.6,1.5,1,1.5,0,0,0,0,0,0s0,0,0,0c.4,0,.9-.8,1-1.5,0-.1,0-.3,0-.4,0,0,0,0,0,0,0,0,0,0,0,0,0,0,0,0,0,0,0,0,0,0,0,0,0,0,0-.2,0-.3,0-.3-.2-.5-.2-.7,0,0,0-.1,0-.1,0,0,0-.2,0-.3,0,0,0,0,.1-.2,0,0,0-.2,0-.2,0,0,0,0,0-.2,0-.3,0-.6-.2-.7-.1-.1-.3-.2-.5-.2,0,0,0,0,0,0,0,0,0,0,.1,0,0,0,0,0,0,0,0,0,0,0,0,0,0,0,0,0,0,0,0,0,0,0,0,0,.1,0,.3,0,.3,0,0,0,0,0,0,0h0c0,0-.2,0-.2,0,0,0,0,0,0,0,0,0,0,0,0,0,0,0,0,0,0,0,0,0,0,0,0-.1,0-.1,0-.4,0-.5,0,0,0,0,0,0,0,0,0,0,0,0h0c0,0-.2,0-.2-.1,0,0,0,0,0,0,0,0,0,0,0,0,0,0-.2,0-.2,0h0ZM4.1.7h0s0,0,0,0c0,0,0,0,0,0Z"/>
  <g id="eyes">
    <path id="eye_r" class="st0" d="M4.4.8c0,0,.5,0,.5.5,0,.5-.4.2-.5,0,0-.1,0-.4,0-.5Z"/>
    <path id="eye_l" class="st0" d="M3.6.8c0,0-.5,0-.5.5,0,.5.4.2.5,0,0-.1,0-.4,0-.5Z"/>
  </g>
  <g id="stripes">
    <path id="stripe_6" d="M3.8,6.3h.1s0,0,.1,0,.1,0,.1,0h.3c0,0-.1.1-.2.1,0,0,0,0,0,0,0,0,0,0-.1,0,0,0,0,0,0,0,0,0,0,0,0,0s0,0,0,0c0,0,0,0,0,0,0,0,0,0-.1,0,0,0,0,0,0,0,0,0-.1,0-.2-.1h.2Z"/>
    <path id="stripe_5" d="M3.4,5.9s.2,0,.3,0c0,0,0,0,0,0,0,0,0,0,0,0,0,0,.1,0,.2,0,0,0,0,0,0,0s0,0,0,0c0,0,.1,0,.2,0,0,0,0,0,0,0,0,0,0,0,.1,0,0,0,.2,0,.3,0,0,0,0,0,0,0,0,0,0,.1-.1.2,0,0,0,0,0,0-.1,0-.4,0-.5,0s-.4,0-.5,0c0,0,0,0,0,0,0,0,0-.1-.1-.2h0s0,0,0,0Z"/>
    <path id="stripe_4" d="M4,5.8h0c-.3,0-.7-.1-.8-.2h0c0-.1.2,0,.5,0,.1,0,.3,0,.4,0s0,0,0,0,0,0,0,0c.2,0,.3,0,.4,0,.3,0,.5-.1.5-.1h0c-.1.2-.5.3-.8.3h0Z"/>
    <path id="stripe_3" d="M5,5s0,0,0,0c0,0-.5.3-1,.3s-.9-.2-1-.3c0,0,0,0,0,0,0,0,0,0,0,0,0,0,.5.2,1,.2,0,0,0,0,0,0,0,0,0,0,0,0s0,0,0,0c0,0,0,0,0,0,.6,0,1-.2,1-.2,0,0,0,0,0,0h0Z"/>
    <path id="stripe_2" d="M2.9,4.6s0,0,0,0c0,0,0,0,0,0,0,0,0,0,0,0,0,0,0,0,0,0,0,0,0,0,0,0,0,0,.6.2,1.1.2,0,0,0,0,0,0,0,0,0,0,0,0s0,0,0,0c0,0,0,0,0,0,.5,0,1-.2,1.1-.2,0,0,0,0,0,0,0,0,0,0,0,0,0,0,0,0,0,0,0,0,0,0,0,0,0,0,0,0,0,0,0,0-.5.3-1.1.3s-1-.2-1.1-.3h0Z"/>
    <path id="stripe_1" d="M5,4.2c0,0-.5.2-1,.2s-1-.2-1-.2c0,0,0,0,0-.1,0,0,.6.2,1,.2,0,0,0,0,0,0,0,0,0,0,0,0s0,0,0,0c0,0,0,0,0,0,.4,0,.9-.2,1-.2,0,0,0,0,0,.1h0Z"/>
  </g>
  <g id="wings">
    <path id="wing_r" class="st1" d="M4.4,3.2s-1.3.2-1.2,2c0,1.8.9,2.8,1.3,2.8.3,0,.6-.3.8-.9,0-.3.2-.7.2-1.1,0-1.3-.4-1.8-.3-1.9,0,0,0-.4,0-.9,0-.4-.1-.7-.2-.9,0-.2-.5,1-.5,1h0Z"/>
    <path id="wing_l" class="st1" d="M3.6,3.2s1.3.2,1.2,2c0,1.8-.9,2.8-1.3,2.8-.3,0-.6-.3-.8-.9,0-.3-.2-.7-.2-1.1,0-1.3.4-1.8.3-1.9s0-.4,0-.9.1-.7.2-.9c0-.2.5,1,.5,1h0Z"/>
  </g>
</svg>